<?xml version="1.0" encoding="UTF-8"?>
<svg width="20px" height="20px" viewBox="0 0 20 20" version="1.1" xmlns="http://www.w3.org/2000/svg" xmlns:xlink="http://www.w3.org/1999/xlink">
    <title>编组 5@3x</title>
    <g id="页面-1" stroke="none" stroke-width="1" fill="none" fill-rule="evenodd">
        <g id="单项选择题" transform="translate(-606.000000, -963.000000)" fill="#aaa" fill-rule="nonzero">
            <g id="形状" transform="translate(606.000000, 963.000000)">
                <path d="M13.2857772,0.428555186 C13.000062,0.14284001 12.7143488,-1.75781455e-05 12.285776,-1.75781455e-05 C11.8572033,-1.75781455e-05 11.57149,0.142839815 11.2857749,0.428555186 L10.8572021,0.857127951 C9.85720092,1.85712911 9.28577252,3.42855672 9.57148575,4.85713261 L8.85719976,5.57141859 C5.85719627,4.71427502 2.57146979,5.4285612 0.428615733,7.57142092 C0.142900557,7.8571361 4.29688e-05,8.28570691 4.29688e-05,8.71427967 C4.29688e-05,9.14285244 0.142900362,9.42856566 0.428615733,9.71428084 L4.57147212,13.8571372 L1.85719161,16.5714177 C1.57147644,16.8571329 1.57147644,17.2857037 1.85719161,17.5714189 C2.14290679,17.8571341 2.5714776,17.8571341 2.85719278,17.5714189 L5.57147328,14.8571384 L10.1429044,19.4285695 C10.5714771,19.8571422 10.8571904,19.9999979 11.2857631,19.9999979 C11.7143359,19.9999979 12.000043,19.8571405 12.2857643,19.5714251 C14.4286184,17.4285711 15.2857678,14.1428446 14.4286184,11.1428411 L15.1429043,10.4285551 C16.5714783,10.7142703 18.1429078,10.1428399 19.142909,9.14283876 L19.5714818,8.714266 C19.8571969,8.42855082 20.0000545,8.1428376 20.0000545,7.71426484 C20.0000545,7.28569207 19.8571971,6.99998242 19.5714818,6.71426367 L13.2857772,0.428555186 Z M18.1429332,8.14285908 C17.2857896,9.00000266 16.1429309,9.28571784 15.000078,9.00000266 C14.7143628,9.00000266 14.5715052,9.00000266 14.285792,9.14286005 L13.1429333,10.4285764 C12.8572181,10.7142916 12.8572181,11.0000048 13.0000759,11.1428624 C14.000077,13.7142912 13.285791,16.5714429 11.2857887,18.4285874 L1.42862881,8.71430487 C2.71434515,7.4285874 4.57148403,6.71430254 6.2857829,6.71430254 C7.14292648,6.71430254 7.85721246,6.85715993 8.71435995,7.1428753 C9.00007512,7.1428753 9.28578834,7.1428753 9.57150352,6.85716013 L10.8572199,5.57144379 C11.0000773,5.4285874 11.142935,5.14287102 11.0000773,4.8571578 C10.7143621,3.71429905 11.0000773,2.57143248 11.8572208,1.71430258 L12.2857936,1.4285874 L18.5715236,7.71431738 L18.1429332,8.14285908 Z"></path>
            </g>
        </g>
    </g>
</svg>