<?xml version="1.0" encoding="UTF-8"?>
<svg width="34px" height="40px" viewBox="0 0 34 40" version="1.1" xmlns="http://www.w3.org/2000/svg" xmlns:xlink="http://www.w3.org/1999/xlink">
    <title>密码</title>
    <g id="页面-1" stroke="none" stroke-width="1" fill="none" fill-rule="evenodd">
        <g id="首页备份-3" transform="translate(-70.000000, -957.000000)" fill="#474953" fill-rule="nonzero">
            <g id="密码" transform="translate(70.000000, 957.000000)">
                <path d="M26.52,14.0360714 L26.52,8.57142857 C26.52,3.83754464 22.8666575,0 18.36,0 L15.64,0 C11.1333425,0 7.48,3.83754464 7.48,8.57142857 L7.48,14.0360714 C3.292305,14.3998661 0,17.0786607 0,21.5714286 L0,31.4285714 C0,36.1624107 3.6533425,40 8.16,40 L25.84,40 C30.3466575,40 34,36.1624107 34,31.4285714 L34,21.5714286 C34,17.0786607 30.707695,14.3998661 26.52,14.0360714 Z M10.88,8.57142857 C10.88,5.81441964 13.0153275,3.57142857 15.64,3.57142857 L18.36,3.57142857 C20.9846725,3.57142857 23.12,5.81441964 23.12,8.57142857 L23.12,14 L10.88,14 L10.88,8.57142857 Z M30.6,31.4285714 C30.6,34.1855804 28.4646725,36.4285714 25.84,36.4285714 L8.16,36.4285714 C5.5353275,36.4285714 3.4,34.1855804 3.4,31.4285714 L3.4,22.5714286 C3.4,19.814375 5.5353275,17.5714286 8.16,17.5714286 L25.84,17.5714286 C28.4646725,17.5714286 30.6,19.814375 30.6,22.5714286 L30.6,31.4285714 Z" id="形状"></path>
                <path d="M20.28125,25 L12.71875,25 C11.7694844,25 11,25.8954 11,27 C11,28.10455 11.7694844,29 12.71875,29 L20.28125,29 C21.2305156,29 22,28.10455 22,27 C22,25.8954 21.2305156,25 20.28125,25 Z" id="路径"></path>
            </g>
        </g>
    </g>
</svg>