<?xml version="1.0" encoding="UTF-8"?>
<svg width="34px" height="40px" viewBox="0 0 34 40" version="1.1" xmlns="http://www.w3.org/2000/svg" xmlns:xlink="http://www.w3.org/1999/xlink">
    <title>手机</title>
    <g id="页面-1" stroke="none" stroke-width="1" fill="none" fill-rule="evenodd">
        <g id="首页备份-3" transform="translate(-70.000000, -817.000000)" fill="#474953" fill-rule="nonzero">
            <g id="手机" transform="translate(70.000000, 817.000000)">
                <path d="M25.7126348,40 L8.28496935,40 C3.71601719,40 0,36.2725306 0,31.6894977 L0,8.31050228 C0,3.72746936 3.71601719,0 8.28496935,0 L25.7150307,0 C30.2839828,0 34,3.72746936 34,8.31050228 L34,31.6894977 C34,36.2725306 30.2815869,40 25.7126348,40 L25.7126348,40 Z M8.28496935,3.36457582 C5.56564019,3.36457582 3.3542386,5.5827926 3.3542386,8.31050228 L3.3542386,31.6894977 C3.3542386,34.4172074 5.56564019,36.6354242 8.28496935,36.6354242 L25.7150307,36.6354242 C28.4343598,36.6354242 30.6457614,34.4172074 30.6457614,31.6894977 L30.6457614,8.31050228 C30.6457614,5.5827926 28.4343598,3.36457582 25.7150307,3.36457582 L8.28496935,3.36457582 Z" id="形状"></path>
                <path d="M24.4591523,27 L9.54084774,27 C8.13900071,27 7,25.8264348 7,24.3874783 L7,8.61252174 C7,7.17113043 8.1413687,6 9.54084774,6 L24.4591523,6 C25.8609993,6 27,7.17356522 27,8.61252174 L27,24.3874783 C27,25.8264348 25.8609993,27 24.4591523,27 L24.4591523,27 Z M10.3151788,23.5913043 L23.6871892,23.5913043 L23.6871892,9.40626087 L10.3151788,9.40626087 L10.3151788,23.5913043 Z" id="形状"></path>
                <path d="M15,32.5 C15,33.3931639 15.4764973,34.2184815 16.25,34.6650635 C17.0235027,35.1116455 17.9764973,35.1116455 18.75,34.6650635 C19.5235027,34.2184815 20,33.3931639 20,32.5 C20,31.1192881 18.8807119,30 17.5,30 C16.1192881,30 15,31.1192881 15,32.5 L15,32.5 Z" id="路径"></path>
            </g>
        </g>
    </g>
</svg>